<?xml version="1.0" encoding="UTF-8"?>
<!DOCTYPE svg PUBLIC "-//W3C//DTD SVG 1.1//EN" "http://www.w3.org/Graphics/SVG/1.1/DTD/svg11.dtd">
<svg version="1.1" xmlns="http://www.w3.org/2000/svg" xmlns:xlink="http://www.w3.org/1999/xlink" x="0" y="0" width="739" height="809" viewBox="0, 0, 739, 809">
  <defs>
    <clipPath id="Clip_1">
      <path d="M-0,0.301 L738.025,0.301 L738.025,808.94 L-0,808.94 z"/>
    </clipPath>
  </defs>
  <g id="Layer_1">
    <g clip-path="url(#Clip_1)">
      <path d="M327.68,789.803 C327.106,794.926 325.408,796.858 319.725,796.712 C301.28,796.239 282.813,796.362 264.361,796.658 C259.817,796.731 259.625,794.667 259.828,791.344 C260.011,788.356 258.812,785.106 264.213,785.345 C274.171,785.785 284.161,785.471 294.138,785.471 C303.948,785.471 313.762,785.608 323.567,785.397 C327.045,785.322 328.094,786.101 327.68,789.803 z M237.284,796.534 C225.961,796.534 214.639,796.534 203.316,796.534 C190.994,796.534 178.672,796.564 166.35,796.499 C164.654,796.49 161.617,797.489 162.621,793.925 C163.453,790.968 160.439,785.605 166.467,785.557 C191.442,785.358 216.42,785.493 241.397,785.443 C243.694,785.438 244.517,786.114 244.62,788.561 C244.954,796.538 245.074,796.534 237.284,796.534 z M673.019,606.523 C673.258,603.619 674.084,601.736 676.993,600.485 C680.622,598.924 683.241,595.869 684.451,592.138 C685.294,589.54 686.718,589.084 689.099,588.817 C712.423,586.199 727.44,573.588 734.179,551.08 C738.414,536.935 738.683,522.368 737.224,507.989 C735.215,488.192 716.633,473.333 696.425,474.15 C694.3,474.236 693.543,473.465 692.715,471.853 C690.643,467.822 687.404,464.858 683.03,463.789 C679.738,462.985 679.494,461.658 680.135,458.615 C693.163,396.757 697.17,334.423 689.815,271.495 C684.546,226.416 673.843,182.787 653.679,141.959 C624.548,82.976 578.948,42.18 516.644,20.452 C505.787,16.666 494.208,15.753 483.181,12.869 C460.743,7.001 438.242,2.119 415.031,0.753 C371.806,-1.791 330.867,6.308 292.963,27.52 C242.252,55.898 207.361,98.546 183.845,150.985 C161.494,200.828 151.411,253.557 148.979,307.803 C146.124,371.467 153.391,434.066 170.727,495.444 C176.105,514.482 182.625,533.123 189.933,551.505 C195.664,565.917 204.359,578.337 215.317,589.601 C208.146,591.152 201.457,592.377 194.886,594.062 C172.061,599.914 150.562,608.636 133.283,625.267 C127.472,630.861 123.053,638.127 113.267,635.651 C113.125,635.615 112.911,635.677 112.79,635.77 C109.57,638.25 107.013,636.096 104.332,634.605 C95.726,629.819 86.997,625.362 76.841,625.028 C69.775,624.795 64.123,627.371 60.646,633.707 C56.974,640.398 58.77,646.628 62.901,652.385 C66.437,657.312 71.151,661.041 76.088,664.489 C85.808,671.276 96.345,676.574 107.092,681.48 C109.119,682.405 110.656,683.174 110.804,685.998 C112.028,709.431 113.574,732.848 114.8,756.281 C115.784,775.108 125.384,784.78 144.241,785.503 C145.328,785.545 147.272,785.018 147.312,786.207 C147.416,789.323 147.235,792.56 146.438,795.556 C145.917,797.518 143.521,796.473 142.006,796.477 C114.345,796.538 86.683,796.503 59.021,796.538 C53.691,796.545 50.711,798.992 50.74,803.049 C50.769,807.094 53.285,808.998 58.659,808.999 C277.287,809.001 495.915,809.001 714.543,808.998 C719.785,808.998 722.482,806.925 722.455,802.963 C722.429,799.116 719.457,796.691 714.537,796.528 C713.372,796.49 712.205,796.521 711.038,796.521 C645.883,796.521 580.728,796.521 515.573,796.521 C514.406,796.521 513.233,796.44 512.075,796.537 C509.884,796.72 508.893,795.996 508.501,793.604 C505.922,777.85 503.162,762.125 500.435,746.395 C500.238,745.259 499.654,744.135 500.787,743.176 C503.813,740.616 503.395,737.369 502.742,733.993 C501.698,728.605 500.742,723.199 499.841,717.786 C499.585,716.249 499.308,714.33 497.987,713.886 C493.097,712.243 493.803,707.926 493.148,704.368 C492.404,700.326 490.735,697.337 486.267,697.239 C482.904,697.165 484.142,694.992 484.267,693.437 C486.191,669.542 488.725,645.711 491.79,621.936 C493.495,619.773 494.254,617.43 493.328,615.035 C494.744,617.643 496.358,620.52 499.621,621.915 C502.01,624.684 504.35,627.496 506.795,630.214 C519.518,644.357 532.73,657.983 549.456,667.504 C562.95,675.186 577.042,679.047 592.379,673.01 C597.973,670.808 603.272,668.067 608.237,664.714 C627.477,651.719 643.085,634.926 657.763,617.171 C660.387,617.89 658.987,619.626 658.747,621.069 C658.381,625.544 658.023,630.02 657.648,634.495 C655.901,655.395 654.14,676.293 652.41,697.195 C652.215,699.56 651.925,701.164 648.67,700.827 C635.926,699.504 623.151,698.47 610.384,697.369 C593.47,695.91 576.557,694.424 559.632,693.088 C553.578,692.61 551.048,694.675 550.673,699.754 C548.474,729.564 569.681,756.135 599.425,760.836 C628.326,765.404 656.174,746.983 663.986,718.722 C666.267,710.47 664.712,702.285 665.508,694.08 C668.337,664.926 670.621,635.718 673.019,606.523" fill="#6E4100"/>
      <path d="M68.459,274.793 C67.817,268.162 68.092,261.612 69.703,255.171 C70.555,251.766 71.756,248.507 73.482,245.447 C80.334,233.302 92.911,231.867 102.346,242.195 C107.247,247.559 109.602,254.151 110.475,261.164 C113.246,283.419 103.565,300.812 88.448,315.906 C85.408,318.941 81.244,318.215 77.497,318.025 C60.154,317.145 43.833,313.391 31.365,300.046 C25.719,294.003 21.283,287.231 20.546,278.652 C19.28,263.898 29.237,255.59 43.506,259.594 C51.702,261.893 58.585,266.473 64.59,272.408 C65.514,273.321 66.098,274.579 66.84,275.677 C67.38,275.382 67.919,275.088 68.459,274.793" fill="#FF7164"/>
      <path d="M0,541.031 C0.422,538.588 0.205,535.765 1.389,533.776 C4.636,528.324 3.804,523.529 1.713,517.747 C-3.08,504.496 3.018,489.538 15.069,482.37 C27.282,475.105 42.674,476.946 52.587,487.204 C54.914,489.613 57.026,490.362 60.292,489.959 C72.157,488.491 82.665,494.963 86.7,505.87 C90.778,516.894 86.874,529.007 76.726,535.565 C74.433,537.047 74.069,538.253 74.691,540.648 C76.358,547.075 77.776,553.565 79.327,560.022 C80.021,562.914 80.132,565.691 77.66,567.841 C75.062,570.099 72.269,569.712 69.291,568.445 C61.963,565.328 54.53,562.455 47.22,559.296 C44.821,558.259 43.305,558.393 41.133,560.21 C33.132,566.899 24.03,567.963 14.549,563.779 C5.524,559.796 0.235,551.072 0,541.031" fill="#6E4100"/>
    </g>
    <path d="M491.79,621.936 C492.121,619.507 492.451,617.079 492.835,614.257 C496.046,616.234 497.467,619.417 499.622,621.916 C497.011,621.922 494.4,621.929 491.79,621.936" fill="#DABF64"/>
    <path d="M657.763,617.171 C658.461,616.22 659.31,615.546 659.574,617.32 C659.76,618.568 659.743,619.981 658.747,621.069 C658.058,619.861 659.412,618.137 657.763,617.171" fill="#AF997E"/>
    <path d="M445.668,17.366 C459.353,20.167 472.986,23.206 486.188,27.831 C491.283,29.617 496.519,28.277 501.766,29.644 C533.703,37.968 561.32,54.024 586.306,75.17 C624.12,107.171 646.383,148.754 660.685,195.286 C672.883,234.973 678.691,275.629 680.055,317.089 C681.694,366.95 676.313,416.037 665.513,464.627 C665.16,466.213 664.608,467.919 663.637,469.174 C660.738,472.919 659.604,477.107 659.584,481.748 C659.574,483.883 659.622,485.992 656.948,487.081 C643.8,492.435 636.554,503.395 631.217,515.641 C627.117,525.051 622.488,534.339 620.412,544.546 C620.227,545.454 619.549,546.32 618.94,547.077 C605.989,563.159 592.928,579.154 580.121,595.35 C577.63,598.5 576.375,597.827 574.246,595.246 C563.322,581.996 553.663,567.814 543.596,553.935 C532.454,538.573 521.587,523.01 510.353,507.717 C508.011,504.528 509.552,504.109 512.065,503.18 C530.314,496.435 547.21,487.263 562.328,474.934 C590.51,451.951 608.265,422.219 618.466,387.704 C619.655,383.683 620.97,382.038 625.573,381.689 C644.997,380.216 657.417,366.937 658.713,347.486 C659.292,338.791 659.239,330.201 656.466,321.857 C652.627,310.302 643.912,303.653 631.804,303.685 C628.451,303.694 627.837,303.062 627.437,299.91 C622.76,263.059 612.77,227.919 593.111,196.012 C576.467,168.998 554.611,147.258 527.121,131.294 C524.649,129.858 522.435,128.695 522.351,125.121 C522.288,122.471 519.967,120.775 517.273,120.329 C514.123,119.809 511.949,121.327 510.172,123.899 C502.586,134.873 494.26,145.266 485.147,155.011 C448.12,194.608 403.037,221.23 351.788,238.03 C323.766,247.216 295.402,254.986 266.103,258.704 C248.736,260.908 231.288,261.903 214.027,257.32 C209.134,256.021 205.744,257.741 204.79,261.565 C203.819,265.456 205.865,268.412 210.581,269.932 C219.081,272.671 218.991,272.655 217.442,281.289 C216.356,287.338 215.485,293.429 214.666,299.522 C214.335,301.985 214.14,303.365 210.732,303.63 C196.394,304.744 188.564,311.873 185.264,326.057 C182.88,336.3 183.081,346.565 185.89,356.688 C190.003,371.507 201.454,380.622 217.688,381.807 C220.923,382.043 222.11,382.999 223.016,386.135 C232.016,417.249 247.013,444.919 270.793,467.337 C287.742,483.314 307.387,494.967 329.177,503.092 C330.84,503.712 332.798,503.795 334.182,505.431 C316.334,526.23 308.881,552.346 297.707,576.562 C296.174,579.883 294.693,583.243 293.463,586.683 C292.431,589.568 290.764,590.452 287.768,589.882 C284.962,589.349 283.771,588.409 283.522,585.168 C282.784,575.553 277.211,569.283 268.284,566.096 C259.29,562.886 250.038,562.693 240.743,564.659 C233.847,566.118 228.046,569.463 223.65,575.071 C220.389,574.688 219.7,571.789 218.502,569.561 C211.922,557.318 207.56,544.189 203.548,530.954 C192.245,493.671 185.916,455.457 182.136,416.744 C179.792,392.732 178.35,368.683 177.092,344.593 C176.292,329.265 175.969,313.948 176.473,298.675 C177.885,255.806 184.172,213.798 201.439,174.061 C207.756,159.523 215.121,145.541 224.134,132.468 C228.029,126.818 229.054,126.704 235.032,130.275 C252.484,140.699 270.876,147.891 291.723,146.727 C297.6,146.4 303.224,145.241 309.518,142.854 C302.748,141.942 296.947,140.636 291.376,138.543 C272.755,131.55 262.728,117.708 259.517,98.418 C258.543,92.57 261.868,89.012 265.786,85.7 C276.604,76.557 287.602,67.636 299.498,59.913 C331.271,39.287 365.194,23.954 402.994,18.326 C409.078,17.42 415.171,16.394 421.377,16.687 C429.494,16.321 437.565,17.423 445.668,17.366" fill="#DCBF5C"/>
    <path d="M615.208,320.259 C614.582,356.727 607.629,391.642 589.093,423.533 C567.78,460.2 535.815,483.395 495.467,494.89 C446.675,508.789 397.383,509.171 348.562,495.585 C288.892,478.981 251.265,439.565 234.91,380.093 C225.556,346.078 223.482,311.588 231.55,276.878 C232.027,274.824 232.09,273.112 235.059,273.252 C255.332,274.209 275.242,271.205 294.972,267.044 C331.504,259.341 367.062,248.468 400.85,232.425 C444.885,211.517 482.157,181.993 512.045,143.385 C514.503,140.209 516.06,139.885 519.546,141.921 C561.235,166.277 587.741,202.534 602.595,247.817 C610.3,271.304 615.523,295.315 615.208,320.259" fill="#FEF8EA"/>
    <path d="M252.633,648.698 C294.278,648.698 335.923,648.764 377.567,648.597 C381.841,648.58 382.869,649.801 382.603,653.901 C380.81,681.453 379.239,709.02 377.562,736.58 C377.108,744.047 376.688,751.522 375.98,758.967 C375.137,767.841 370.124,772.276 361.119,772.312 C346.96,772.37 332.801,772.328 318.642,772.328 C260.672,772.328 202.703,772.331 144.734,772.326 C133.43,772.325 128.431,767.357 127.787,756.121 C125.894,723.078 123.892,690.041 121.856,657.006 C121.343,648.69 121.211,648.698 129.698,648.698 C170.677,648.698 211.655,648.698 252.633,648.698" fill="#FF7E79"/>
    <path d="M304.901,592.779 C314.655,571.38 322.418,549.408 333.552,528.943 C336.905,522.781 341.097,517.21 346.12,512.26 C348.235,510.175 350.318,509.68 353.282,510.37 C360.891,512.142 368.577,513.624 376.283,514.913 C378.567,515.295 379.57,515.951 380.257,518.272 C387.881,544.028 415.016,555.041 438.87,542.246 C448.036,537.329 453.229,529.497 455.319,519.626 C455.939,516.694 457.034,516.02 459.706,515.69 C470.255,514.39 480.763,512.698 490.983,509.732 C493.826,508.906 495.292,509.716 496.824,511.786 C501.178,517.669 505.798,523.363 509.982,529.362 C527.211,554.071 544.679,578.603 563.196,602.369 C565.959,605.914 568.918,609.321 572.471,612.122 C577.343,615.963 580.419,615.705 584.344,610.869 C597.145,595.099 609.932,579.316 622.547,563.397 C624.591,560.819 625.745,560.042 628.624,562.427 C634.901,567.627 641.65,572.242 648.773,576.238 C650.81,577.38 651.559,578.604 651.127,580.984 C650.103,586.628 650.993,591.999 654.803,596.474 C656.158,598.066 655.692,599.015 654.657,600.3 C639.065,619.652 623.091,638.664 602.347,652.838 C582.339,666.509 570.199,666.314 550.224,652.546 C532.319,640.205 518.093,624.149 504.826,607.176 C500.116,601.149 495.787,594.822 491.326,588.603 C488.213,584.262 484.695,583.118 481.268,585.432 C478.063,587.596 477.597,591.247 480.264,595.554 C481.298,597.223 481.672,598.765 481.408,600.695 C477.112,632.025 473.584,663.442 471.081,694.966 C470.813,698.344 469.837,699.296 466.385,699.27 C443.228,699.094 420.068,699.081 396.911,699.277 C393.161,699.309 392.954,698.003 392.751,694.788 C392.184,685.824 395.956,681.054 404.424,677.762 C415.719,673.371 426.144,666.942 435.347,658.831 C438.737,655.844 441.813,652.592 443.718,648.395 C448.853,637.089 441.649,625.449 429.248,625.023 C420.085,624.709 412.034,628.258 404.136,632.284 C399.446,634.674 395.373,636.759 389.205,636.03 C382.518,635.241 377.973,633.618 373.916,628.316 C369.875,623.036 364.398,618.999 358.796,615.373 C356.454,613.858 355.393,612.069 355.097,609.394 C354.44,603.442 353.625,597.507 352.785,591.577 C352.159,587.157 349.215,584.628 345.498,585.145 C341.705,585.672 339.452,588.835 339.861,593.193 C340.126,596.007 340.58,598.803 340.828,601.618 C341.036,603.985 339.817,604.647 337.765,603.704 C327.312,598.904 316.295,595.768 304.901,592.779" fill="#FEFEFE"/>
    <path d="M420.623,17.965 C390.763,19.503 362.785,28.028 335.961,40.807 C309.776,53.281 286.155,69.546 264.432,88.724 C260.686,92.031 260.21,95.353 261.097,99.713 C266.004,123.828 282.509,138.663 307.227,141.087 C308.987,141.259 310.94,140.773 312.702,142.612 C306.103,146.453 299.033,147.793 291.701,148.206 C270.541,149.396 251.859,142.087 234.18,131.391 C228.659,128.052 228.71,128.008 224.979,133.536 C203.3,165.649 190.553,201.244 183.735,239.162 C177.875,271.754 176.618,304.647 177.942,337.627 C179.181,368.534 181.083,399.423 184.806,430.15 C190.119,474.001 198.191,517.237 214.711,558.486 C217.057,564.343 219.462,570.194 223.65,575.07 C223.039,578.208 221.725,577.454 220.204,575.705 C213.515,568.01 207.629,559.807 203.667,550.324 C183.928,503.08 171.815,453.879 165.595,403.129 C161.208,367.329 160.091,331.427 162.797,295.491 C167.499,233.075 181.5,173.237 215.532,119.684 C245.619,72.339 286.189,37.832 340.792,21.641 C372.599,12.209 404.965,11.128 437.631,16.211 C437.22,18.516 435.38,17.452 434.183,17.538 C429.673,17.863 425.125,17.139 420.623,17.965" fill="#FEFEFE"/>
    <path d="M361.634,635.176 C288.467,635.176 215.915,635.176 142.949,635.176 C144.207,632.048 146.765,630.542 149.035,628.851 C166.479,615.86 186.411,608.716 207.498,604.604 C246.962,596.909 285.891,598.737 323.976,612.226 C335.791,616.41 346.844,622.169 356.7,630.035 C358.359,631.359 360.165,632.543 361.634,635.176" fill="#FF7E78"/>
    <path d="M608.217,748.262 C586.122,748.238 568.21,733.004 564.087,711.009 C563.413,707.412 564.389,706.609 567.755,706.902 C581.16,708.069 594.584,709.025 607.99,710.18 C621.226,711.32 634.438,712.777 647.687,713.721 C651.522,713.994 651.499,715.314 650.512,718.222 C644.444,736.1 627.356,748.283 608.217,748.262" fill="#9C9C9C"/>
    <path d="M683.883,575.797 C684.69,571.999 685.93,569.46 690.432,570.014 C692.971,570.327 694.614,568.122 695.36,565.766 C696.185,563.16 695.43,560.884 693.401,558.985 C688.134,554.059 688.396,552.275 694.724,548.874 C697.378,547.449 698.392,545.122 698.048,542.19 C697.695,539.173 695.972,537.005 693.005,536.861 C687.417,536.591 687.864,533.47 689.245,529.804 C690.694,525.954 692.817,522.768 697.197,521.582 C700.496,520.688 702.032,518.268 701.812,514.787 C701.603,511.475 699.719,509.737 696.64,508.956 C689.484,507.142 686.586,503.416 687.855,497.757 C689.391,490.911 696.907,485.656 703.12,487.087 C715.172,489.862 724.177,500.847 724.66,513.305 C725.147,525.839 724.889,538.284 720.667,550.31 C714.875,566.806 701.163,576.405 683.883,575.797" fill="#FEF8EA"/>
    <path d="M457.61,747.147 C467.131,746.439 475.567,745.86 483.992,745.154 C486.378,744.954 487.181,746.039 487.545,748.183 C490.095,763.242 492.674,778.295 495.362,793.33 C495.813,795.856 495.045,796.513 492.623,796.498 C479.651,796.421 466.679,796.467 453.706,796.456 C452.24,796.455 450.265,796.759 450.118,794.752 C449.952,792.483 448.07,790.353 450.283,787.788 C456.034,781.123 461.457,774.172 466.957,767.292 C471.089,762.123 470.873,759.578 466.013,754.95 C463.509,752.566 460.947,750.242 457.61,747.147" fill="#B9DEFE"/>
    <path d="M652.482,563.162 C645.787,559.092 640.079,554.843 634.427,550.502 C632.893,549.324 632.354,548.249 633.1,546.308 C637.678,534.395 641.516,522.159 648.441,511.284 C652.181,505.411 656.785,500.483 663.8,498.531 C668.454,497.237 670.073,498.227 669.393,502.846 C667.584,515.13 663.196,526.24 653.094,534.274 C649.643,537.019 648.317,541.065 651.167,543.673 C654.213,546.461 653.758,549.42 653.558,552.652 C653.456,554.31 653.242,555.962 653.071,557.616 C652.901,559.258 652.722,560.9 652.482,563.162" fill="#FEF8EA"/>
    <path d="M646.086,340.312 C645.742,344.166 645.762,348.326 644.623,352.364 C642.083,361.366 636.454,366.809 627.061,368.455 C623.951,369 623.208,368.413 623.817,365.376 C626.268,353.158 627.614,340.807 627.966,328.349 C628.036,325.864 628.336,323.359 628.123,320.898 C627.839,317.62 628.993,316.552 632.301,316.718 C637.992,317.003 641.49,319.929 643.66,324.916 C645.766,329.754 645.75,334.928 646.086,340.312" fill="#FEF8EA"/>
    <path d="M218.646,368.57 C206.538,367.357 199.868,361.418 197.774,350.303 C196.242,342.171 196.245,334.059 198.783,326.117 C200.735,320.005 204.63,317.153 210.331,316.739 C213.035,316.543 213.76,317.424 213.755,320.028 C213.72,336.21 215.502,352.227 218.646,368.57" fill="#FEF8EA"/>
    <path d="M393.695,516.96 C409.234,518.314 424.323,518.406 439.418,517.571 C442.542,517.398 442.112,519.173 441.324,521.051 C437.826,529.382 430.905,532.569 422.502,533.685 C407.91,535.623 397.216,529.656 393.695,516.96" fill="#FEF8EA"/>
    <path d="M109.224,668.086 C97.09,662.265 85.309,656.301 75.475,647.128 C74.757,646.458 74.12,645.639 73.65,644.778 C72.82,643.257 71.114,641.858 72.387,639.847 C73.652,637.849 75.749,637.827 77.748,638.061 C83.448,638.727 88.548,641.194 93.637,643.633 C95.281,644.421 96.837,645.391 98.432,646.281 C109.373,652.386 110.418,654.439 109.224,668.086" fill="#9C9C9C"/>
    <path d="M395.003,667.838 C394.155,662.982 395.66,658.747 395.572,654.44 C395.54,652.857 396.506,652.077 397.663,651.324 C405.771,646.05 414.027,641.078 423.509,638.608 C424.626,638.317 425.787,638.123 426.938,638.051 C428.789,637.934 430.662,637.956 431.854,639.76 C433.205,641.805 431.653,643.239 430.64,644.652 C426.254,650.775 419.854,654.484 413.62,658.274 C407.823,661.8 401.863,665.107 395.003,667.838" fill="#9C9C9C"/>
    <path d="M478.723,713.61 C463.422,715.596 448.166,718.268 432.801,719.278 C425.204,719.778 417.34,718.131 409.57,718.24 C404.845,718.307 400.197,719.972 395.373,718.718 C393.216,718.157 391.321,718.173 391.658,714.908 C391.979,711.792 393.821,712.161 395.808,712.161 C420.416,712.165 445.024,712.133 469.632,712.203 C472.646,712.211 475.774,711.553 478.723,713.61" fill="#B9DBFA"/>
    <path d="M675.019,527.86 C677.435,542.381 675.3,555.974 674.268,569.587 C673.878,574.721 673.201,579.834 672.825,584.97 C672.605,587.986 671.065,589.875 668.21,589.729 C665.075,589.568 663.57,587.242 663.829,584.154 C665.065,569.416 665.958,554.627 667.946,539.988 C668.505,535.878 672.372,532.217 675.019,527.86" fill="#FF7D78"/>
    <path d="M356.923,788.965 C356.279,785.933 357.486,785.34 359.539,785.451 C366.385,785.82 372.796,784.51 378.292,780.159 C380.05,778.767 380.704,779.892 381.788,781.061 C384.74,784.246 386.36,788.824 391.606,789.653 C393.884,790.012 392.428,792.449 392.569,793.941 C392.713,795.479 392.023,796.513 390.306,796.513 C379.994,796.515 369.646,797.002 359.389,796.253 C355.65,795.98 357.978,790.897 356.923,788.965" fill="#B9DCFC"/>
    <path d="M251.805,576.687 C255.641,576.74 259.444,576.893 263.141,578.093 C265.753,578.941 268.031,580.239 269.45,582.657 C270.199,583.932 271.128,585.39 270.438,586.868 C269.563,588.741 267.867,587.61 266.478,587.523 C256.68,586.913 246.859,586.7 237.092,587.624 C232.945,588.016 233.228,586.317 234.354,583.727 C236.326,579.193 240.533,577.941 244.845,577.14 C247.115,576.719 249.482,576.821 251.805,576.687" fill="#9C9C9C"/>
    <path d="M441.663,731.483 C456.513,729.597 470.803,727.827 485.076,725.93 C487.905,725.554 488.31,726.992 488.726,729.253 C489.277,732.253 487.435,732.002 485.592,732.128 C472.846,732.999 460.099,733.862 447.358,734.812 C444.964,734.991 443.17,734.393 441.663,731.483" fill="#B9DCFB"/>
    <path d="M434.821,743.856 C440.845,749.456 446.471,754.796 452.238,759.979 C453.996,761.559 453.934,762.629 452.561,764.477 C446.802,772.225 446.787,772.329 441.427,764.067 C437.577,758.133 431.893,752.759 434.821,743.856" fill="#B9DDFD"/>
    <path d="M391.583,771.858 C384.785,764.599 388.918,754.558 401.799,745.328 C405.714,757.032 395.148,762.717 391.583,771.858" fill="#B9DCFC"/>
    <path d="M412.655,764.54 C411.721,774.472 410.77,784.403 409.872,794.338 C409.722,795.995 409,796.658 407.333,796.558 C405.667,796.458 405.507,795.444 405.649,794.177 C406.554,786.122 407.291,778.042 408.508,770.035 C408.819,767.983 410.658,766.164 411.795,764.238 C412.081,764.338 412.368,764.439 412.655,764.54" fill="#B7D9F7"/>
    <path d="M428.471,768.193 C434.858,775.584 434.312,785.176 436.598,793.866 C436.965,795.262 436.89,796.49 434.862,796.566 C432.673,796.648 432.08,795.459 431.755,793.571 C430.41,785.74 428.954,777.929 427.538,770.11 C427.209,769.16 426.712,768.128 428.471,768.193" fill="#B8DAF9"/>
    <path d="M672.579,482.701 C672.708,478.709 673.497,475.876 677.558,475.978 C680.36,476.048 681.922,477.866 681.674,480.559 C681.376,483.78 679.676,487.088 676.595,487.485 C674.537,487.751 671.234,485.818 672.579,482.701" fill="#FF7D77"/>
    <path d="M420.779,739.521 C419.363,740.729 423.873,745.192 418.027,744.929 C415.866,744.831 415.054,744.007 414.972,742.045 C414.874,739.735 414.633,737.419 414.716,735.115 C414.768,733.639 413.419,731.286 416.725,731.281 C419.435,731.278 421.231,731.843 420.807,735.108 C420.638,736.407 420.779,737.747 420.779,739.521" fill="#B8DAF9"/>
    <path d="M420.623,17.965 C424.344,16.37 428.282,17.459 432.092,17.021 C433.943,16.809 435.987,17.826 437.631,16.211 C440.309,16.596 442.987,16.981 445.667,17.366 C437.353,18.951 428.97,17.716 420.623,17.965" fill="#DDCFAE"/>
    <path d="M395.728,732.3 C394.441,733.796 393.428,735.657 391.264,734.764 C390.337,734.381 390.289,732.809 390.887,732.097 C392.443,730.246 394.045,731.49 395.728,732.3" fill="#B1CDE5"/>
    <path d="M341.462,791.238 C341.645,793.11 342.657,794.883 341.094,796.447 C340.958,796.583 339.925,796.217 339.895,796.004 C339.657,794.257 339.338,792.418 341.462,791.238" fill="#ACC2D6"/>
    <path d="M428.471,768.193 C428.16,768.832 427.849,769.471 427.538,770.11 C426.738,768.994 426.01,767.609 427.091,766.583 C427.61,766.091 428.205,767.43 428.471,768.193" fill="#989D9D"/>
    <path d="M63.967,552.108 C57.332,549.386 51.373,546.963 45.433,544.496 C41.186,542.733 37.933,543.359 35.143,547.473 C30.77,553.924 22.967,554.951 17.391,550.239 C11.934,545.629 11.868,537.531 17.244,532.154 C21.778,527.617 21.885,525.627 17.854,520.748 C10.771,512.176 12.003,500.509 20.633,494.429 C29.463,488.209 40.643,490.738 46.447,500.268 C50.084,506.239 51.671,506.73 58.14,503.883 C64.605,501.037 71.785,503.801 74.325,510.114 C76.95,516.635 73.495,523.717 66.557,526.039 C59.672,528.343 58.868,529.831 60.543,537.086 C61.624,541.766 62.679,546.452 63.967,552.108" fill="#FEFEFE"/>
    <path d="M417.557,119.883 C417.403,122.91 415.818,124.596 414.124,126.244 C379.842,159.605 342.343,188.655 300.158,211.449 C284.76,219.769 268.826,226.843 252.2,232.318 C247.703,233.799 243.904,232.131 243,228.27 C241.994,223.967 244.005,221.384 248.135,219.992 C278.166,209.875 305.631,194.726 331.72,176.964 C357.916,159.129 382.314,139.066 404.999,116.939 C407.601,114.401 410.235,112.739 413.838,114.323 C416.374,115.438 417.359,117.702 417.557,119.883" fill="#6E4100"/>
    <path d="M571.025,402.05 C547.914,401.085 532.551,387.712 532.783,368.498 C533.009,349.685 547.979,328.726 570.27,328.473 C592.845,328.217 605.077,350.32 605.757,367.545 C606.291,381.064 590.267,403.2 571.025,402.05" fill="#FFD5BA"/>
    <path d="M276.62,402.051 C253.512,400.973 238.108,388.365 238.125,369.17 C238.142,348.317 253.76,329.43 276.038,328.36 C293.194,327.536 311.545,347.618 311.564,366.901 C311.58,382.299 294.552,403.438 276.62,402.051" fill="#FFD5BA"/>
    <path d="M454.097,397.91 C452.848,410.937 450.064,423.51 442.68,434.605 C433.381,448.576 418.202,450.076 406.288,438.243 C396.812,428.832 393.136,416.558 389.763,404.179 C388.821,400.723 388.634,397.265 384.029,396.01 C380.991,395.182 380.902,391.789 381.965,389.191 C383.12,386.366 385.711,385.521 388.629,386.256 C394.111,387.636 399.64,388.659 405.266,389.299 C418.074,390.755 430.801,390.439 443.485,388.134 C453.254,386.359 455.058,388.042 454.097,397.91" fill="#6E4100"/>
    <path d="M303.728,310.8 C304.216,302.939 307.367,295.803 313.912,290.469 C315.913,288.839 316.098,287.765 314.583,285.716 C311.311,281.291 310.181,276.132 310.173,270.688 C310.169,267.755 311.461,265.79 314.472,265.638 C317.65,265.479 319.314,267.31 319.674,270.441 C319.901,272.41 320.05,274.424 320.595,276.314 C322.245,282.033 325.008,283.982 330.918,283.898 C342.829,283.729 351.93,290.601 355.188,302.084 C356.319,306.068 355.21,309.063 351.488,310.722 C347.95,312.299 344.545,310.434 342.776,306.349 C339.321,298.371 336.115,296.095 329.616,297.01 C322.815,297.967 317.252,304.015 316.804,311.517 C316.586,315.183 315.874,318.181 311.917,319.108 C306.933,320.274 303.617,317.032 303.728,310.8" fill="#6E4100"/>
    <path d="M538.19,311.778 C538.125,316.64 536.101,319.117 532.054,319.223 C527.46,319.343 525.316,316.774 525.19,312.482 C524.981,305.375 521.601,300.504 515.133,297.829 C508.7,295.168 503.206,297.411 500.271,303.696 C499.78,304.747 499.373,305.838 498.943,306.917 C497.435,310.705 494.422,311.806 490.85,310.767 C487.308,309.736 485.943,306.853 486.622,303.295 C487.723,297.529 490.649,292.701 495.248,289.108 C497.397,287.428 497.629,286.319 496.111,283.992 C493.815,280.475 493.012,276.335 492.692,272.141 C492.435,268.768 493.255,265.99 497.138,265.664 C500.776,265.359 502.024,267.801 502.296,270.997 C502.408,272.323 502.493,273.661 502.737,274.967 C503.794,280.61 507.12,283.578 512.695,283.932 C526.565,284.812 538.375,297.712 538.19,311.778" fill="#6E4100"/>
    <path d="M512.237,180.109 C519.433,180.609 526.144,183.955 530.887,190.926 C532.792,193.725 533.558,196.66 530.32,198.729 C527.497,200.534 525.213,199.259 523.253,196.469 C518.424,189.595 512.315,187.844 504.615,190.958 C501.546,192.198 498.963,192.233 497.592,188.902 C496.237,185.609 498.115,183.559 501.022,182.248 C504.244,180.794 507.604,179.974 512.237,180.109" fill="#6F4300"/>
    <path d="M421.403,326.176 C415.756,326.357 409.325,316.513 411.809,311.398 C413.235,308.46 415.791,307.518 418.882,308.017 C422.864,308.659 428.585,317.365 427.52,321.243 C426.689,324.267 424.653,326.031 421.403,326.176" fill="#6F4300"/>
    <path d="M400.146,399.92 C409.105,400.917 417.535,401.5 425.986,401.035 C430.46,400.788 434.94,400.493 439.389,399.976 C441.883,399.686 443.118,399.981 442.549,402.93 C440.907,411.441 438.814,419.794 434.303,427.309 C428.551,436.892 420.061,437.723 412.863,429.229 C405.827,420.925 402.924,410.759 400.146,399.92" fill="#FEFEFE"/>
  </g>
</svg>
